<?xml version="1.0" encoding="utf-8"?>
<!-- Generator: Adobe Illustrator 23.0.4, SVG Export Plug-In . SVG Version: 6.00 Build 0)  -->
<svg version="1.1" id="Layer_1" xmlns="http://www.w3.org/2000/svg" xmlns:xlink="http://www.w3.org/1999/xlink" x="0px" y="0px"
	 viewBox="0 0 512 640" style="enable-background:new 0 0 512 640;" xml:space="preserve">
<g>
	<g>
		<path d="M489.5,167L357.2,34.7c-0.4-0.4-0.9-0.8-1.3-1.2c-0.1-0.1-0.1-0.1-0.2-0.2c-0.4-0.3-0.8-0.7-1.2-1c0,0,0,0,0,0
			c-6.2-5.1-14-7.9-22.1-7.9c-6.9,0-13.5,2-19.2,5.7c0,0,0,0-0.1,0c-0.4,0.3-0.8,0.6-1.2,0.9c-0.1,0-0.1,0.1-0.2,0.1
			c-0.4,0.3-0.7,0.6-1.1,0.8c-0.1,0.1-0.2,0.2-0.3,0.2c-0.3,0.3-0.7,0.6-1,0.9c-0.1,0.1-0.2,0.2-0.3,0.3c-0.4,0.4-0.9,0.8-1.3,1.2
			L194,145.8l0,0l-51.7,50.6c0,0,0,0,0,0L120,218.2l-96.8,95.1c-6.6,6.6-10.2,15.4-10.2,24.8c0,9.3,3.6,18.1,10.2,24.8l103.1,103.1
			c14.3,14.4,33.5,22.3,54,22.3c9.9,0,20-0.1,29.7-0.1l1.6,0l0.6,0c9.3-0.1,18.7-0.1,28.1-0.2c17.8-0.2,36.2-0.3,54.3-0.3
			c2.2,0,4-1.8,4-4s-1.8-4-4-4c-18.1,0-36.5,0.2-54.4,0.3c-6.2,0.1-12.5,0.1-18.7,0.1l79.8-79.8c21.1-20.8,38.9-38.1,54.7-53.6
			c5.9-5.7,11.5-11.2,16.9-16.4l22.3-21.7c23.1-22.4,46.8-45.5,78.6-76.6c1-0.9,1.9-1.9,2.9-2.8c4.1-4,8.3-8.2,12.7-12.5
			c0,0,0.1-0.1,0.1-0.1c0,0,0,0,0,0C503.1,202.9,503.1,180.7,489.5,167z M483.9,210.9L483.9,210.9C483.9,211,483.8,211,483.9,210.9
			c-2.6,2.5-5,4.9-7.4,7.3c-1.9,1.9-3.8,3.7-5.6,5.5c-3.2,3.2-6.4,6.2-9.4,9.2c-1.6,1.6-3.3,3.2-4.9,4.8c-0.2,0.2-0.4,0.4-0.6,0.6
			c-25.7,25.2-46.2,45.1-66.2,64.5l-12.9,12.5l-9.5,9.2c-10.7,10.4-22.2,21.7-35,34.2c-0.3,0.3-0.5,0.5-0.8,0.8c-1,1-2.1,2-3.1,3.1
			c-0.5,0.5-1,1-1.5,1.5c-0.9,0.9-1.8,1.7-2.6,2.6c-0.8,0.8-1.5,1.5-2.3,2.3c-0.6,0.6-1.2,1.2-1.8,1.8c-1,1-2,2-3.1,3
			c-0.5,0.5-1.1,1-1.6,1.6c-1.1,1.1-2.3,2.2-3.4,3.3c-0.4,0.4-0.9,0.8-1.3,1.3c-1.4,1.4-2.8,2.8-4.3,4.2c-0.1,0.1-0.2,0.2-0.3,0.3
			c-2.5,2.4-5,4.9-7.6,7.5l-37.7-37.8L128.5,221.1l19.5-18.9l51.7-50.6L313.4,40.3c0.3-0.3,0.7-0.6,1-0.9c0.1,0,0.1-0.1,0.2-0.1
			c0.3-0.3,0.6-0.5,0.9-0.8c0,0,0.1,0,0.1-0.1c9.9-8,24.1-7.9,34,0.1c0,0,0,0,0,0c0.3,0.2,0.6,0.5,0.9,0.8c0.1,0.1,0.1,0.1,0.2,0.2
			c0.3,0.3,0.7,0.6,1,0.9l132.3,132.3C494.4,183.2,494.4,200.4,483.9,210.9z"/>
		<path d="M356.6,479.6H321c-2.2,0-4,1.8-4,4s1.8,4,4,4h35.6c2.2,0,4-1.8,4-4S358.8,479.6,356.6,479.6z"/>
	</g>
</g>
</svg>
